<svg version="1.1" id="Layer_1" xmlns="http://www.w3.org/2000/svg" xmlns:xlink="http://www.w3.org/1999/xlink" x="0px" y="0px"
	 width="2em" viewBox="0 0 981 646" enable-background="new 0 0 981 646" xml:space="preserve">
<path fill="#000000" opacity="1.000000" stroke="none" 
	d="
M933.000000,647.000000 
	C932.555542,647.000000 932.111084,647.000000 931.167603,646.608887 
	C929.177673,646.145386 927.686768,646.009644 926.195801,646.009583 
	C635.612244,646.000305 345.028748,645.999146 54.445229,646.041870 
	C52.963440,646.042053 51.481743,646.666870 50.000000,647.000000 
	C49.250000,647.000000 48.500000,647.000000 47.258781,646.630859 
	C25.620232,642.578796 10.830011,631.173218 3.511893,610.675659 
	C2.712582,608.436890 1.839092,606.224609 1.000002,604.000000 
	C1.000000,540.979126 1.000000,477.958221 1.457223,414.551666 
	C7.382911,413.737244 12.910590,413.680786 18.310650,412.821930 
	C70.342209,404.546448 108.367653,355.468567 103.805656,302.651367 
	C99.169838,248.979507 54.406261,207.766479 1.000000,208.000000 
	C1.000000,153.645767 1.000000,99.291542 1.354613,44.353630 
	C7.524089,20.589338 21.855881,6.378732 45.598289,2.040064 
	C46.111732,1.946237 46.534782,1.357740 47.000000,1.000001 
	C47.750000,1.000000 48.500000,1.000000 49.791061,1.391612 
	C51.487888,1.855271 52.643654,1.990420 53.799427,1.990456 
	C345.049194,1.999562 636.298950,2.000744 927.548706,1.957989 
	C929.032532,1.957771 930.516235,1.333072 932.000000,1.000002 
	C932.000000,1.000000 932.500000,1.000000 932.887268,1.379350 
	C935.078003,1.989908 936.894226,2.148442 938.682922,2.463385 
	C960.188721,6.249827 980.243713,24.568455 981.098999,53.443241 
	C981.010498,77.168991 981.022644,100.431412 980.996033,123.693771 
	C980.963867,151.772064 980.898743,179.850311 980.398804,207.945190 
	C922.908264,208.721466 877.561340,255.109039 878.010315,312.240540 
	C878.452148,368.457153 924.507812,414.141968 980.815552,414.584351 
	C980.935608,470.383118 980.963928,525.728699 981.008179,581.074280 
	C981.011902,585.723022 981.123291,590.371704 981.105347,595.445496 
	C980.114380,620.907349 962.949158,640.902344 938.365723,645.607422 
	C936.554626,645.954102 934.787537,646.530457 933.000000,647.000000 
M819.273621,230.855942 
	C837.620850,195.048569 864.573425,167.853470 900.622314,149.854507 
	C903.409058,148.463089 903.838623,146.674973 903.827820,143.966949 
	C903.746887,123.634026 903.789062,103.300629 903.770813,82.967400 
	C903.769714,81.697853 903.583862,80.428474 903.500610,79.370300 
	C628.214661,79.370300 353.313202,79.370300 78.216537,79.370300 
	C78.216537,101.557472 78.134018,123.375946 78.383614,145.190628 
	C78.402237,146.818756 80.460739,149.095490 82.139160,149.935898 
	C150.976334,184.403595 191.276260,260.448242 179.641617,336.420441 
	C170.266937,397.635315 137.292328,442.679626 82.644791,471.768066 
	C79.502068,473.440918 78.092140,475.051819 78.116478,478.817505 
	C78.299622,507.149536 78.216324,535.483276 78.216324,563.816528 
	C78.216324,565.428711 78.216324,567.040955 78.216324,568.662109 
	C353.626007,568.662109 628.508606,568.662109 903.422302,568.662109 
	C903.531555,567.854126 903.653198,567.373901 903.653381,566.893738 
	C903.664185,537.060547 903.613037,507.227081 903.749878,477.394470 
	C903.763123,474.503876 902.542908,473.329559 900.279785,472.183380 
	C811.134094,427.035706 775.281128,320.853516 819.273621,230.855942 
z"/>
<path fill="#FEFEFE" opacity="1.000000" stroke="none" 
	d="
M980.727966,414.131134 
	C924.507812,414.141968 878.452148,368.457153 878.010315,312.240540 
	C877.561340,255.109039 922.908264,208.721466 980.686218,207.973694 
	C981.615051,207.990402 981.807556,207.995193 982.000000,208.000000 
	C982.000000,276.354218 982.000000,344.708466 981.680603,413.550568 
	C981.150146,414.069336 980.939087,414.100220 980.727966,414.131134 
z"/>
<path fill="#FEFEFE" opacity="1.000000" stroke="none" 
	d="
M1.000000,208.468658 
	C54.406261,207.766479 99.169838,248.979507 103.805656,302.651367 
	C108.367653,355.468567 70.342209,404.546448 18.310650,412.821930 
	C12.910590,413.680786 7.382911,413.737244 1.457223,414.083008 
	C1.000000,345.645782 1.000000,277.291534 1.000000,208.468658 
z"/>
<path fill="#999999" opacity="1.000000" stroke="none" 
	d="
M931.538757,1.000002 
	C930.516235,1.333072 929.032532,1.957771 927.548706,1.957989 
	C636.298950,2.000744 345.049194,1.999562 53.799427,1.990456 
	C52.643654,1.990420 51.487888,1.855271 50.166061,1.391612 
	C343.692505,1.000000 637.385010,1.000000 931.538757,1.000002 
z"/>
<path fill="#999999" opacity="1.000000" stroke="none" 
	d="
M50.461258,647.000000 
	C51.481743,646.666870 52.963440,646.042053 54.445229,646.041870 
	C345.028748,645.999146 635.612244,646.000305 926.195801,646.009583 
	C927.686768,646.009644 929.177673,646.145386 930.834351,646.608887 
	C637.640808,647.000000 344.281677,647.000000 50.461258,647.000000 
z"/>
<path fill="#FCFCFC" opacity="1.000000" stroke="none" 
	d="
M933.468628,647.000000 
	C934.787537,646.530457 936.554626,645.954102 938.365723,645.607422 
	C962.949158,640.902344 980.114380,620.907349 981.309692,595.462524 
	C981.593384,595.054382 982.000000,595.000000 982.000000,595.000000 
	C982.000000,612.257935 982.000000,629.515808 982.000000,647.000000 
	C965.979797,647.000000 949.958557,647.000000 933.468628,647.000000 
z"/>
<path fill="#FCFCFC" opacity="1.000000" stroke="none" 
	d="
M981.182556,52.979881 
	C980.243713,24.568455 960.188721,6.249827 938.682922,2.463385 
	C936.894226,2.148442 935.078003,1.989908 933.137268,1.379350 
	C949.262268,1.000000 965.524536,1.000000 982.000000,1.000000 
	C982.000000,18.020302 982.000000,35.041492 981.796143,52.504753 
	C981.592346,52.946823 981.182556,52.979881 981.182556,52.979881 
z"/>
<path fill="#FCFCFC" opacity="1.000000" stroke="none" 
	d="
M46.531342,1.000001 
	C46.534782,1.357740 46.111732,1.946237 45.598289,2.040064 
	C21.855881,6.378732 7.524089,20.589338 1.354613,43.884972 
	C1.000000,29.737495 1.000000,15.474992 1.000000,1.000000 
	C16.020227,1.000000 31.041454,1.000000 46.531342,1.000001 
z"/>
<path fill="#FCFCFC" opacity="1.000000" stroke="none" 
	d="
M1.000002,604.468628 
	C1.839092,606.224609 2.712582,608.436890 3.511893,610.675659 
	C10.830011,631.173218 25.620232,642.578796 46.883781,646.630859 
	C31.742435,647.000000 16.484871,647.000000 1.000000,647.000000 
	C1.000000,632.979919 1.000000,618.958618 1.000002,604.468628 
z"/>
<path fill="#E5E5E5" opacity="1.000000" stroke="none" 
	d="
M982.000000,594.531372 
	C982.000000,595.000000 981.593384,595.054382 981.389038,595.037354 
	C981.123291,590.371704 981.011902,585.723022 981.008179,581.074280 
	C980.963928,525.728699 980.935608,470.383118 980.815552,414.584351 
	C980.939087,414.100220 981.150146,414.069336 981.680603,414.019226 
	C982.000000,474.020905 982.000000,534.041809 982.000000,594.531372 
z"/>
<path fill="#E5E5E5" opacity="1.000000" stroke="none" 
	d="
M981.098999,53.443241 
	C981.182556,52.979881 981.592346,52.946823 981.796143,52.973412 
	C982.000000,104.354225 982.000000,155.708450 982.000000,207.531342 
	C981.807556,207.995193 981.615051,207.990402 981.135254,207.957092 
	C980.898743,179.850311 980.963867,151.772064 980.996033,123.693771 
	C981.022644,100.431412 981.010498,77.168991 981.098999,53.443241 
z"/>
<path fill="#FFFFFF" opacity="1.000000" stroke="none" 
	d="
M819.132935,231.202454 
	C775.281128,320.853516 811.134094,427.035706 900.279785,472.183380 
	C902.542908,473.329559 903.763123,474.503876 903.749878,477.394470 
	C903.613037,507.227081 903.664185,537.060547 903.653381,566.893738 
	C903.653198,567.373901 903.531555,567.854126 903.422302,568.662109 
	C628.508606,568.662109 353.626007,568.662109 78.216324,568.662109 
	C78.216324,567.040955 78.216324,565.428711 78.216324,563.816528 
	C78.216324,535.483276 78.299622,507.149536 78.116478,478.817505 
	C78.092140,475.051819 79.502068,473.440918 82.644791,471.768066 
	C137.292328,442.679626 170.266937,397.635315 179.641617,336.420441 
	C191.276260,260.448242 150.976334,184.403595 82.139160,149.935898 
	C80.460739,149.095490 78.402237,146.818756 78.383614,145.190628 
	C78.134018,123.375946 78.216537,101.557472 78.216537,79.370300 
	C353.313202,79.370300 628.214661,79.370300 903.500610,79.370300 
	C903.583862,80.428474 903.769714,81.697853 903.770813,82.967400 
	C903.789062,103.300629 903.746887,123.634026 903.827820,143.966949 
	C903.838623,146.674973 903.409058,148.463089 900.622314,149.854507 
	C864.573425,167.853470 837.620850,195.048569 819.132935,231.202454 
M547.500183,285.325012 
	C468.931030,285.325012 390.361908,285.325012 311.650818,285.325012 
	C311.650818,311.480560 311.650818,337.031097 311.650818,362.622620 
	C432.006104,362.622620 552.035339,362.622620 672.186279,362.622620 
	C672.186279,336.802124 672.186279,311.241089 672.186279,285.325012 
	C630.738525,285.325012 589.619385,285.325012 547.500183,285.325012 
z"/>
<path fill="#030303" opacity="1.000000" stroke="none" 
	d="
M548.000244,285.325012 
	C589.619385,285.325012 630.738525,285.325012 672.186279,285.325012 
	C672.186279,311.241089 672.186279,336.802124 672.186279,362.622620 
	C552.035339,362.622620 432.006104,362.622620 311.650818,362.622620 
	C311.650818,337.031097 311.650818,311.480560 311.650818,285.325012 
	C390.361908,285.325012 468.931030,285.325012 548.000244,285.325012 
z"/>
</svg>