<?xml version="1.0" standalone="no"?>
<!DOCTYPE svg PUBLIC "-//W3C//DTD SVG 20010904//EN"
 "http://www.w3.org/TR/2001/REC-SVG-20010904/DTD/svg10.dtd">
<svg version="1.0" xmlns="http://www.w3.org/2000/svg"
 x="0px" y="0px" width="2em" viewBox="0 0 981.000000 646.000000"
 preserveAspectRatio="xMidYMid meet">

<g transform="translate(0.000000,646.000000) scale(0.100000,-0.100000)"
fill="#000000" stroke="none">
<path d="M2035 5751 c-61 -16 -71 -28 -145 -188 -264 -574 -416 -1082 -492
-1648 -20 -149 -22 -213 -23 -530 0 -376 8 -483 56 -770 81 -485 253 -1006
472 -1430 78 -151 87 -157 236 -162 128 -5 191 10 205 48 7 20 -3 51 -48 156
-244 573 -388 1134 -442 1725 -21 229 -21 667 0 896 56 613 194 1147 443 1710
59 135 60 152 10 179 -36 18 -219 28 -272 14z"/>
<path d="M7216 5749 c-46 -11 -76 -35 -76 -60 0 -9 31 -89 69 -176 222 -512
355 -1015 418 -1583 22 -206 26 -823 5 -1020 -62 -593 -208 -1149 -437 -1676
-30 -69 -55 -136 -55 -150 0 -46 39 -59 185 -59 104 0 136 3 162 17 38 21 69
74 163 278 430 933 563 1882 400 2855 -69 408 -268 1014 -463 1405 -58 117
-78 148 -102 159 -37 18 -214 24 -269 10z"/>
<path d="M5300 5741 c-62 -13 -80 -28 -80 -68 0 -20 16 -185 36 -366 19 -181
33 -331 31 -333 -2 -3 -134 90 -293 206 -159 115 -297 210 -306 210 -40 0
-140 -123 -182 -225 -19 -45 -21 -109 -3 -123 6 -5 154 -72 328 -148 173 -77
315 -143 315 -149 0 -5 -144 -74 -320 -152 -176 -79 -323 -148 -328 -155 -25
-41 5 -129 87 -252 41 -63 69 -86 101 -86 13 0 144 89 310 211 159 115 290
206 291 202 2 -5 -13 -157 -32 -337 -43 -407 -43 -391 -5 -411 71 -37 300 -31
347 9 l26 23 -37 351 c-21 194 -36 356 -34 362 2 6 133 -84 292 -200 179 -130
297 -210 312 -210 13 0 37 15 57 35 41 42 125 188 133 232 14 74 21 69 -331
225 -180 80 -326 149 -326 153 0 4 143 70 318 147 175 77 324 145 332 151 9 8
12 26 9 58 -9 88 -144 289 -194 289 -10 0 -149 -95 -309 -210 -159 -116 -291
-206 -293 -200 -2 6 13 168 34 361 l37 350 -20 21 c-12 11 -40 24 -64 29 -52
10 -189 10 -239 0z"/>
<path d="M3263 2550 c-77 -16 -113 -43 -149 -110 -16 -30 -19 -58 -19 -195 0
-147 2 -164 23 -207 19 -38 34 -52 75 -73 97 -47 302 -43 379 8 18 12 44 44
58 72 21 43 25 67 28 176 6 192 -26 276 -120 314 -50 20 -211 29 -275 15z"/>
</g>
</svg>
